/* XPM */
static char *cancel1[] = {
/* width height num_colors chars_per_pixel */
"    32    22      233            2",
/* colors */
".. c #0c0204",
".# c #2c8204",
".a c #840204",
".b c #c4420c",
".c c #8482cc",
".d c #2c4204",
".e c #ccce5c",
".f c #8c2a9c",
".g c #b43204",
".h c #0c0284",
".i c #cccecc",
".j c #bc569c",
".k c #cc8a9c",
".l c #4c228c",
".m c #a41624",
".n c #b42e04",
".o c #a43254",
".p c #f4f69c",
".q c #4c4a84",
".r c #bc3a04",
".s c #e45e5c",
".t c #44668c",
".u c #941204",
".v c #a4221c",
".w c #e45edc",
".x c #0422fc",
".y c #2c3e04",
".z c #eca68c",
".A c #fcfe2c",
".B c #ac2a04",
".C c #bcae74",
".D c #fcc29c",
".E c #eceadc",
".F c #0c025c",
".G c #ec6a64",
".H c #9c1e24",
".I c #048a9c",
".J c #4436fc",
".K c #bc3a14",
".L c #f47adc",
".M c #c44264",
".N c #2c6604",
".O c #bc3604",
".P c #0c02fc",
".Q c #fc8afc",
".R c #9c1a04",
".S c #fcc2d4",
".T c #2c1e04",
".U c #8c0a04",
".V c #ac220c",
".W c #d4d28c",
".X c #d452fc",
".Y c #b4221c",
".Z c #3c2adc",
".0 c #5c4ed4",
".1 c #cc4e5c",
".2 c #0c0224",
".3 c #04ce04",
".4 c #bc8ac4",
".5 c #6c5efc",
".6 c #fca6fc",
".7 c #ecee64",
".8 c #fcd2d4",
".9 c #645ad4",
"#. c #9496e4",
"## c #b43214",
"#a c #4c3e94",
"#b c #fcfeb4",
"#c c #c43e04",
"#d c #e4627c",
"#e c #acaacc",
"#f c #fcfed4",
"#g c #b42e2c",
"#h c #2c9e04",
"#i c #9486fc",
"#j c #fc8e8c",
"#k c #5c5a84",
"#l c #6c6eb4",
"#m c #e462fc",
"#n c #443e0c",
"#o c #fcb694",
"#p c #ac2a14",
"#q c #ec6a7c",
"#r c #f472f4",
"#s c #6c6e44",
"#t c #941e1c",
"#u c #940e04",
"#v c #fcd270",
"#w c #cc6ed4",
"#x c #f4fa54",
"#y c #6456f8",
"#z c #0c0215",
"#A c #a42204",
"#B c #7c564c",
"#C c #b43609",
"#D c #0c02bc",
"#E c #045afc",
"#F c #742a8c",
"#G c #a41e2c",
"#H c #bc3e0b",
"#I c #9c1604",
"#J c #ac222c",
"#K c #0c32fc",
"#L c #bc3621",
"#M c #fce6fc",
"#N c #f47264",
"#O c #4c3ee4",
"#P c #c43a18",
"#Q c #cc4a4c",
"#R c #e4a2ec",
"#S c #ac2614",
"#T c #3c3ac4",
"#U c #dc4e54",
"#V c #fcd6fc",
"#W c #acaafc",
"#X c #ec6660",
"#Y c #2c1afc",
"#Z c #f4fa74",
"#0 c #6c5afc",
"#1 c #2c8e04",
"#2 c #04aafc",
"#3 c #2cba4c",
"#4 c #b43664",
"#5 c #fcd22c",
"#6 c #2c7a04",
"#7 c #54421c",
"#8 c #443644",
"#9 c #ac2aac",
"a. c #0492e4",
"a# c #cc669c",
"aa c #2c7e4c",
"ab c #fcbefc",
"ac c #b4b2b4",
"ad c #2ca244",
"ae c #cc5ecc",
"af c #d4cafc",
"ag c #fc9ae4",
"ah c #e4e294",
"ai c #fcb274",
"aj c #dc66fc",
"ak c #747674",
"al c #545e84",
"am c #fccefc",
"an c #046ae4",
"ao c #4c26b4",
"ap c #6c6ef4",
"aq c #3c3a24",
"ar c #543e54",
"as c #d4968c",
"at c #5c4afc",
"au c #fcfea4",
"av c #fcfefc",
"aw c #fcbeb4",
"ax c #bcb2fc",
"ay c #2c4ec4",
"az c #b4b6cc",
"aA c #0c3eec",
"aB c #e4e6fc",
"aC c #d4d644",
"aD c #2c4e04",
"aE c #5c268c",
"aF c #fc928c",
"aG c #fcb294",
"aH c #3426f4",
"aI c #fc7afc",
"aJ c #545284",
"aK c #dc5afc",
"aL c #ec6afc",
"aM c #fc8aa4",
"aN c #fc9efc",
"aO c #d44e54",
"aP c #e466d4",
"aQ c #fcdadc",
"aR c #fcda74",
"aS c #fcfe44",
"aT c #0c0274",
"aU c #fccad4",
"aV c #4c3eac",
"aW c #fceefc",
"aX c #4c3efc",
"aY c #9c8ac4",
"aZ c #fcfe71",
"a0 c #8c0604",
"a1 c #ac1624",
"a2 c #fcf29c",
"a3 c #0c26fc",
"a4 c #7472b4",
"a5 c #241efc",
"a6 c #a42614",
"a7 c #bc2e28",
"a8 c #0c0294",
"a9 c #fc7adc",
"b. c #bc3614",
"b# c #0c0234",
"ba c #fcfec4",
"bb c #dccafc",
"bc c #9c8ad4",
"bd c #941604",
"be c #ac2e06",
"bf c #fcc6a4",
"bg c #ec6e61",
"bh c #9c1e04",
"bi c #8c0e04",
"bj c #ac2608",
"bk c #b41e28",
"bl c #c43e14",
"bm c #3c3ebc",
"bn c #d4524c",
"bo c #840604",
"bp c #b43614",
"bq c #ac2e14",
"br c #a42604",
"bs c #ac262c",
"bt c #fcdafc",
"bu c #2c9204",
"bv c #ac1a24",
"bw c #0c020c",
"bx c #b4320c",
"by c #0c028c",
"bz c #b42e0c",
"bA c #bc3a0c",
"bB c #bc3224",
"bC c #bc360c",
"bD c #9c1a0c",
"bE c #8c0a0c",
"bF c #b42224",
"bG c #0c022c",
"bH c #fcfebc",
"bI c #c43e0c",
"bJ c #5c5a8c",
"bK c #e46664",
"bL c #f472fc",
"bM c #940e0c",
/* pixels */
".a.a.a.a.a.a.a.a.a.a.a.a.a.a.a.a.a.a.a.a.a.a.a.a.a.a.a.a.a.a.a.a",
".a.a.a.a.a.a.a.a.a.a.a.a.a.a.a.a.a.aboa0aQ#VaIaN#MawaOa1.m.m.m.a",
".a.a.a.a.a.a.a.a.a.a.a.a.a.a.a.a.aboa0bEav.6bu#B#9#RagaM#Ua1a1.a",
".a.a.a.a.a.a.a.a.a.a.a.a.abo.abo.abobEbMavbt.3aD#6#s.j.4aGbkbk.a",
".a.a.a.a.a.a.a.a.abobobobobobobobo.UbE#Iav#f.I#3.d.T#h.fbf.Ybv.a",
".a.a.a.a.a.abobobobobibibibibibi.UbibMbDav#xaA#2ad.y#1#F#o.Y#S.a",
".a.a.a.a.abobobibibgaFbn#Ibd.u#I.u#IbD#NbH#Z.P#Ka..N.#aE.z.V#7.a",
".a.a.abobobobibd#Nav.iaUbh#A#A.Rbhbh#A.8.A#yaT.P#Eaa#6.lasbh#n.a",
".a.a.abobibibgaRaZavaz#M.n.B.Bbrbg.8#bba.E.PbGa8a3an#8ao.k#taq.a",
".abobobibi#NauaSaf#0.eam#Cbg.SaW#faZaBax.0.h.2b#.P.xayae.o#t#8.a",
".abobobgaRaZ#b#0by.P#.am#va2.p.W#Wat.Pby#z#z.2bG#Da5.t#w.H#Gar.a",
".a.U.GauaSbb.9.h..by#OaY.CaYaX.P.Pby#z#z#z#z#z.2.P#Ta##4#GbFbs.a",
".abKauaS.5.h..bwbwbw#zbw#zbw#zbw#zbwbwbw#z#z#z.h#Yalaj#J#ga7a7.a",
".a#jaCbc#a.F..bwbw#zbwbwbwbwbwbw.....h.P.P#YaV#y#l.L.MbB#L#LbB.a",
".abK#v.A#b.J.Fbwbw.h.P.P.P.P.P.P.P.PaHaX#kap#r#X#d.1b.#H#P#P#L.a",
".a#u#I#Xau.7.J.F#z.Pa5#T.q.qaJaJ#k#kaka9aL.w.Mbx#C#HbI.bbl.K#C.a",
".abi.ubh.Ga2ah#i.Z.Pbm.X.X.XaK#maLbLaP.MbzbxbA#HbI.b.bbI.rbCbz.a",
".a.U.u.R#A.Gai#5acaHbJ.X.v.m#S#SbzbzbC#CbCbA#HbI.b#c#H.r.g.Bbr.a",
".a.Ubi#Ibhbj.g#X.D#ea4aL.v#pbq##bp##bCbAbA#H.r#H.r#C.gbe.B#Abh.a",
".a.Ubibd.R#Abe.n#Xab.c.Qa6#pbz##bCbx#C#C#C.O#C.g.nbe.B#Abh.R.u.a",
".abo.U#ubd#Abrbe.n.s#q#Q.v.Bbqbxbebx.g.nbe.B.Bbrbr#Abh.R#I.ubi.a",
".a.a.a.a.a.a.a.a.a.a.a.a.a.a.a.a.a.a.a.a.a.a.a.a.a.a.a.a.a.a.a.a"
};
