/* XPM */
static char *clear[] = {
/* width height num_colors chars_per_pixel */
"    32    22      231            2",
/* colors */
".. c #7c2204",
".# c #048204",
".a c #04c204",
".b c #9c0204",
".c c #3cc204",
".d c #3c8604",
".e c #04e204",
".f c #844e04",
".g c #045e04",
".h c #04a204",
".i c #445e04",
".j c #24e204",
".k c #24c204",
".l c #cc0204",
".m c #4c6e04",
".n c #3ca204",
".o c #74ce04",
".p c #04f204",
".q c #24a204",
".r c #04d204",
".s c #3c9204",
".t c #fc2224",
".u c #cc4614",
".v c #04b204",
".w c #645604",
".x c #8c6a04",
".y c #348e04",
".z c #14f208",
".A c #bc862c",
".B c #647204",
".C c #6ce204",
".D c #14e204",
".E c #ec0204",
".F c #8c2e04",
".G c #44e604",
".H c #049404",
".I c #74b204",
".J c #1cc904",
".K c #14d204",
".L c #5c9208",
".M c #b46604",
".N c #24d404",
".O c #44b208",
".P c #9c8204",
".Q c #14a404",
".R c #24b604",
".S c #646204",
".T c #647e04",
".U c #fc1414",
".V c #546a04",
".W c #9cc614",
".X c #04fe04",
".Y c #14b604",
".Z c #04cc04",
".0 c #ac0204",
".1 c #247604",
".2 c #54a404",
".3 c #04dc04",
".4 c #fc3434",
".5 c #847604",
".6 c #14fd04",
".7 c #6c4204",
".8 c #6c920c",
".9 c #5cc604",
"#. c #04ed04",
"## c #545e04",
"#a c #74de04",
"#b c #3c9a08",
"#c c #747204",
"#d c #14ec04",
"#e c #149a04",
"#f c #a4461c",
"#g c #04ac04",
"#h c #24f204",
"#i c #9c6a14",
"#j c #8cea34",
"#k c #f40b0c",
"#l c #5cfe04",
"#m c #24da04",
"#n c #7c6208",
"#o c #048c04",
"#p c #4c8604",
"#q c #047904",
"#r c #447e04",
"#s c #44ae04",
"#t c #34aa04",
"#u c #2c9e04",
"#v c #ac3604",
"#w c #049d04",
"#x c #549e04",
"#y c #548a04",
"#z c #34b604",
"#A c #6c4e04",
"#B c #6c9e04",
"#C c #4c9e04",
"#D c #0cc504",
"#E c #8c1204",
"#F c #448e04",
"#G c #0ce304",
"#H c #dc0204",
"#I c #7cc204",
"#J c #0cf304",
"#K c #2caa08",
"#L c #0cd504",
"#M c #fc2c2c",
"#N c #04be04",
"#O c #7c5604",
"#P c #8c6624",
"#Q c #a4aa04",
"#R c #1ce404",
"#S c #44ee0c",
"#T c #14ce04",
"#U c #14dc04",
"#V c #ac7604",
"#W c #14ae04",
"#X c #fc1c1c",
"#Y c #bc0204",
"#Z c #0cda09",
"#0 c #fc3c3c",
"#1 c #1cfc04",
"#2 c #ccbe34",
"#3 c #fc4444",
"#4 c #c4ce34",
"#5 c #74f604",
"#6 c #9cf614",
"#7 c #5cda04",
"#8 c #6c3604",
"#9 c #94de04",
"a. c #848a24",
"a# c #845e04",
"aa c #b45204",
"ab c #347e04",
"ac c #949204",
"ad c #34fc04",
"ae c #34e604",
"af c #84ba04",
"ag c #7c3e04",
"ah c #9c1a04",
"ai c #747a14",
"aj c #649a0c",
"ak c #7c9a04",
"al c #44be04",
"am c #8c3a04",
"an c #5c720c",
"ao c #4c9604",
"ap c #64a204",
"aq c #ac3e14",
"ar c #44ca0c",
"as c #846e04",
"at c #74760c",
"au c #94fe04",
"av c #944e04",
"aw c #84de04",
"ax c #6cca1c",
"ay c #746a04",
"az c #745e0c",
"aA c #546204",
"aB c #84ca04",
"aC c #ac7e04",
"aD c #ac3a1c",
"aE c #4ce214",
"aF c #749a0c",
"aG c #74fe0c",
"aH c #047e04",
"aI c #5c9e14",
"aJ c #4c5e04",
"aK c #449b04",
"aL c #349a08",
"aM c #5c8a0c",
"aN c #3cc614",
"aO c #0ca604",
"aP c #2cc604",
"aQ c #0cb204",
"aR c #8c6614",
"aS c #6c7604",
"aT c #f40604",
"aU c #2cb804",
"aV c #1cb404",
"aW c #744604",
"aX c #64c204",
"aY c #0cee04",
"aZ c #5c5a04",
"a0 c #7c6e04",
"a1 c #1cee04",
"a2 c #1c9604",
"a3 c #ac4a1c",
"a4 c #0caa04",
"a5 c #fc0e0c",
"a6 c #2cde04",
"a7 c #34ce04",
"a8 c #4c7a04",
"a9 c #4caa04",
"b. c #1cba04",
"b# c #aca604",
"ba c #4cea0c",
"bb c #1cda04",
"bc c #3c7a04",
"bd c #2ca20c",
"be c #a40204",
"bf c #d40204",
"bg c #5c8204",
"bh c #6c7e04",
"bi c #5c6a04",
"bj c #b40204",
"bk c #744e04",
"bl c #e40204",
"bm c #1cce04",
"bn c #b47604",
"bo c #1cae04",
"bp c #c40204",
"bq c #6c6a04",
"br c #44620c",
"bs c #14f604",
"bt c #9c6e1c",
"bu c #0cfe08",
"bv c #34d604",
"bw c #749e14",
"bx c #048604",
"by c #04c604",
"bz c #3c8a04",
"bA c #04e604",
"bB c #046204",
"bC c #04a604",
"bD c #24c604",
"bE c #04f604",
"bF c #04d604",
"bG c #fc2624",
"bH c #04b604",
"bI c #647604",
"bJ c #14e604",
"bK c #ec0604",
/* pixels */
".a.Zbu.XbF#N.#bF.abA.Z#L#G#w.hbHaH.rbA.XbybE.pbE.rbC.XbAbAbE.Xby",
".##w#..X.X.X#W.z.Y.6bb#h.K#w#w#NbBaH.Hby.a.3bA#.#N.HbAbA.p.3.X.a",
".g#q.h.v#DbD#X#Mbc#mbpaT#u.aby.X#w.e.e.3.3#..X.XbA.v.X.3.3.vbFbx",
"#g.v.3.r#M.0bl#kbfaT#Mbp.L#L.3.X.H.Z.Z.3.X.p.p.X.3#N.Xbu.3#w.e.H",
"by.Z.X#1#3bf.EbGbl#5bG.E.w#U#..X#g.e.3.e.e.Z.Z.3.Z.Z.X.e.a.HbF.H",
".a#Nbu#k#X.lau.EbK.xbp.UaW#U.X.X.v.e.ZbH.r#Nby.Z.v.r.X.XbE.ZbE#w",
"#g#gbl#HaTa3a8#Xbfasbl.lagb.#.bE.Z#G.3.3.X.p.6#1#W#Z.X.XaY#L.6a4",
"bH#g.E.lacaW#pa9#X.Sbfbebk.DbE#UaU.R#e.vbF#T#XbK#sb.aQbl#b#z#Xbd",
"#w#w.t#XaDaJa2#Kbg#l.Ebp#n#Ubb#k.b#3aN.K#dbj#3aT.laPaT.ta5#H.Ea8",
"bx#e#Hbj.7aLaYbsbD#S#Y#H##.Jbjbl.E#X.T.kaTbf#YaTbG#pbfbl.t#0#H#B",
"#qa2bpb#bibobububs#hblbjbI#X#3a5bf#M#9.EaT.W#Hbl#k.8bl.E.lbpbpa#",
".H.l.U.A#yaO.e.3.3.N.bbfa.blbj.E#X.la5blbK.faG#M#X#y#H#M#Yam#n#y",
"#w#X.0ah.s.Z.X.X.Xa1#MaCbh#k.4.Ubp#k#M#HbfaS#l.E.laS#k#k.ubh.2a7",
"aQbp#0..aL#Z.X.X#.bp.t.M#j.E.l#Yblaaaf#H.M.Tad.E#kbi.E#X.FaK.QbJ",
"#o#Y#k#caK.Z.Z#G#JaT.U#EaI.l.E#X#vbq.C.U#V.L.lbKbn.m.0.lavbvaQ.r",
".HbKaTakaKbuaY.U.Jbf.laq.G.Ea5ah.5aK#Hbj#Hapblbf#2#rbl.E#ia6by#.",
"#o.N.4bfaM#R.j#Hbz.l#Y#8ba#X#M#4aF.n#HbfbG#I#X#Y.PajbG#Xbt.j.e.X",
"#qaV.0#k.oae#3blaA.E#H#faEbfblbpbj.y.j#M.E#X#Y.0.Eax.Ubl#P.q.h#Z",
"#w.z.l#Hbf#H#Hbpazbl.Uac#r.t#Hbl#M.V.R.EaTbf.lbK#kaX#X.I.S#UbF.X",
"#w#.#t.4bl.Ua5#6###Hbla0#zbG.E#0aBanbm#7#k#Q.l.Ea5ai#7#A#C#J.a.r",
".abubo.2#kawaR.BabaU.9.wbmad#aaZat#F.DaUbw.5at#Oaya8aK.d.qbF#g.3",
"bF.X#o.JaoaS#x.cb..J#saKbJ#hal.Oar.k#J#Ua7.nbcbr.i.1aV.J#D#N.Hby"
};
