/* XPM */
static char * del_prog_xpm[] = {
"32 22 9 1",
" 	c #BFBFCCCCCCCC",
".	c #000000006666",
"X	c #00009999FFFF",
"o	c #0000FFFFFFFF",
"O	c #8080CCCCFFFF",
"+	c #000000000000",
"@	c #00000000FFFF",
"#	c #808066669999",
"$	c #FFFF0000FFFF",
"                                ",
"                                ",
"  ..XXXoOoooOOOO+               ",
"  .@XXOOOooOO+++                ",
"  XXOOOOOOOOooooo               ",
"  XXOOOOOOOOooooo               ",
"  XXOOOOoOOoOOOOoO              ",
"  XXoooo+++OoooOoOOOO           ",
"  @@oo+#####+OOOOOOOXX          ",
"  @@oo+#####+OOOOOOOXX          ",
"  @@++## ####++OOOOOOXXX        ",
"  +@        ###+OOXXXX@@@       ",
"      $$$$   ####OXXX@@@@.      ",
"       $  $    ##XXX@X@@..      ",
"       $  $    ##XXX@X@@..      ",
"       $$$      #+@@@@@@.+      ",
"       $         #++....+       ",
"       $         #++..++        ",
"      $$$        #++..++        ",
"                  ++++          ",
"                                ",
"                                "};
