/* XPM */
static char * delete_job_xpm[] = {
"32 22 10 1",
" 	c #BFBFCCCCCCCC",
".	c #404066666666",
"X	c #FFFF0000FFFF",
"o	c #000000006666",
"O	c #00009999FFFF",
"+	c #0000FFFFFFFF",
"@	c #8080CCCCFFFF",
"#	c #000000000000",
"$	c #00000000FFFF",
"%	c #808066669999",
"                              ..",
"                              ..",
"                        XXX   ..",
"  ooOO++@++@@@@#         X    ..",
"  o$O@@@@+@@###          X    ..",
"  OO@@@@@@@+++++         X    ..",
"  OO@@@@+@+@@@@+@        X    ..",
"  OO++++##@+++@+@@@    X X    ..",
"  OO++++##@+++@+@@@    XX     ..",
"  $$+#%%%%%#@@@@@@OOO         ..",
"  $$#%%% %%%##@@@@@OOO        ..",
"  #$       %%%#@@OOOO$$       ..",
"            %%%%@OO$$$$o      ..",
"              %%OO$OO$oo      ..",
"               %#$$$$$o#      ..",
"               %#$$$$$o#      ..",
"                %#oooo#       ..",
"                %#ooo#        ..",
"                 ####         ..",
"                              ..",
"                              ..",
"                              .."};
