/* XPM */
static char *exit3[] = {
/* width height num_colors chars_per_pixel */
"    32    22       75            2",
/* colors */
".. c #00a96e",
".# c #a59a04",
".a c #f5ff29",
".b c #f5ff33",
".c c #f5ff36",
".d c #f6ff3b",
".e c #f6ff3e",
".f c #f7ff4d",
".g c #f9ff27",
".h c #f9ff2c",
".i c #f9ff2e",
".j c #f9ff31",
".k c #f9ff33",
".l c #faff39",
".m c #faff3e",
".n c #faff40",
".o c #faff43",
".p c #faff45",
".q c #faff48",
".r c #faff4a",
".s c #faff4d",
".t c #faff50",
".u c #faff52",
".v c #faff55",
".w c #faff57",
".x c #fbff5a",
".y c #fbff5f",
".z c #fbff61",
".A c #fbff64",
".B c #fbff66",
".C c #fbff69",
".D c #fbff6c",
".E c #fbff6e",
".F c #fbff73",
".G c #fbff76",
".H c #fbff78",
".I c #fcff7b",
".J c #fcff7d",
".K c #fcff83",
".L c #fcff85",
".M c #fcff88",
".N c #fcff8a",
".O c #fcff8d",
".P c #fcff8f",
".Q c #fcff97",
".R c #fdffb0",
".S c #fdffb6",
".T c #fdffb8",
".U c #feff66",
".V c #feff71",
".W c #feff76",
".X c #feff7d",
".Y c #feff80",
".Z c #feff85",
".0 c #feff88",
".1 c #feff8a",
".2 c #feff8f",
".3 c #feff92",
".4 c #feff94",
".5 c #feff97",
".6 c #feff99",
".7 c #feffc7",
".8 c #ff0000",
".9 c #ffff9c",
"#. c #ffff9f",
"## c #ffffa1",
"#a c #ffffa4",
"#b c #ffffa6",
"#c c #ffffa9",
"#d c #ffffab",
"#e c #ffffae",
"#f c #ffffb0",
"#g c #ffffb8",
"#h c #ffffbb",
"#i c #ffffd2",
/* pixels */
"................................................................",
"................................................................",
"................................................................",
".............................................a..................",
"...........g.i.b.b.c.e.e.#...............a.z.Y.B.a..............",
".........f.J.O.5.5.5##.8.U...............v.8.8.8.f..............",
".........F.8.8.8.8.8.8.8.8.h.............A.8.8.8.w.a.r.o........",
".........F.8.8.8.8.8.8.8.4.l.#.........#.y.8.8.8.s.z.8.8.n......",
".........x.8.8.8#e.6.8.8.4.G.I.y.o.y.W.V.Z#h#i.2.A.8.8.8.G.d....",
".........x.8.8.8.6.Q#d.8#e.8.8.8.P.8.8.8.8.8.8#..9.8.8.8.8.F.g..",
".........D.8.8.8#g.8.8.0.8.8.8.8.8.8.8.8.8.8.8#f.8.8.8.8.8.8.j..",
".........K.8.8.8.8.8.8.z.0.8.8.8.8.8.8.8.8.8.8.9.8.8.8.8.9.z....",
".......g.P.8.8.8.8.8.8.p.q#..8.8.8.8.9##.8.8.8.J#d.8.8#d.w.h....",
".......j#..8.8.7.8.8#b.t.j.Y.8.8.8.1.q.H.8.8.8.C.8.8.8.P.h......",
".......c.8.8.8##.2.8.S.M.y.4.8.8.8.J.j.I.8.8.8.B.8.8.8.Y........",
".......q.8.8.8.P.C#c.8.8.8.8.8.8.8.9.v.2.8.8.8.X.8.8.8.1.q......",
".......D.8.8.8.T#a.8.8.8.8.8.8.8.8.8.8.R.8.8.8#g.8.8.8.8.8.e....",
".....#.L.8.8.8.8.8.8.8.8.8.8.T.8.8.8.8.8.8.8.8.8.8.8.8.8.8.p....",
".......G.8.8.8.8.8.8.8.8.8.1.z.L.8.8.8.N.8.8.8.3.5.8.8.8.H.j....",
".......l.y.E.D.y.x.w.u.s.r.k...j.u.z.u.m.w.z.t.l.e.x.w.p.h......",
"...........#.#..................................................",
"................................................................"
};
