/* XPM */
static char *exit[] = {
/* width height num_colors chars_per_pixel */
"    32    22        2            1",
/* colors */
". c #a5f600",
"# c #5151fb",
/* pixels */
"................................",
"................................",
"................................",
"................................",
"................................",
"..#########...........##....#...",
"...###...##...........##....#...",
"...###....#................##...",
"...###.......####.##.###..####..",
"...###...#....###.#...##...##...",
"...#######.....###....##...##...",
"...###...#.....###....##...##...",
"...###..........##....##...##...",
"...###....#....####...##...##...",
"...###...##...#..##...##...##.#.",
"..#########..###.###.####...##..",
"................................",
"................................",
"................................",
"................................",
"................................",
"................................"
};
