/* XPM */
static char *get[] = {
/* width height num_colors chars_per_pixel */
"    32    22      125            2",
/* colors */
".. c #040204",
".# c #048204",
".a c #840284",
".b c #04c204",
".c c #044604",
".d c #440244",
".e c #44fe44",
".f c #d44ad4",
".g c #04e204",
".h c #042604",
".i c #b402b4",
".j c #240224",
".k c #24fa24",
".l c #04a204",
".m c #04f204",
".n c #b42ab4",
".o c #041204",
".p c #7c327c",
".q c #3c163c",
".r c #540654",
".s c #140214",
".t c #9c029c",
".u c #049204",
".v c #04d204",
".w c #64fe64",
".x c #cc16cc",
".y c #04b204",
".z c #046a04",
".A c #440a44",
".B c #34fe34",
".C c #d402d4",
".D c #541254",
".E c #cc2acc",
".F c #14fa14",
".G c #040a04",
".H c #54fe54",
".I c #e476e4",
".J c #04ea04",
".K c #0cfa0c",
".L c #340e34",
".M c #047604",
".N c #1c8a1c",
".O c #940294",
".P c #04ca04",
".Q c #4c024c",
".R c #dc5adc",
".S c #043204",
".T c #c40ec4",
".U c #2cfa2c",
".V c #04aa04",
".W c #441a44",
".X c #041a04",
".Y c #941e94",
".Z c #ac02ac",
".0 c #049a04",
".1 c #04da04",
".2 c #04ba04",
".3 c #d43ad4",
".4 c #0c020c",
".5 c #048a04",
".6 c #840a84",
".7 c #4cfa4c",
".8 c #c402c4",
".9 c #740e74",
"#. c #0cf20c",
"## c #5c0e5c",
"#a c #1c021c",
"#b c #3c063c",
"#c c #74fe74",
"#d c #4c0a4c",
"#e c #3cfa3c",
"#f c #dc32dc",
"#g c #0cee0c",
"#h c #047e04",
"#i c #040604",
"#j c #8c068c",
"#k c #04c604",
"#l c #045a04",
"#m c #440644",
"#n c #04e604",
"#o c #042e04",
"#p c #bc02bc",
"#q c #2c022c",
"#r c #24fe24",
"#s c #6c026c",
"#t c #04a604",
"#u c #4c124c",
"#v c #c436c4",
"#w c #041604",
"#x c #3c1a3c",
"#y c #5c025c",
"#z c #340634",
"#A c #049604",
"#B c #04d604",
"#C c #6cfe6c",
"#D c #cc1acc",
"#E c #04b604",
"#F c #046e04",
"#G c #cc0ecc",
"#H c #cc32cc",
"#I c #14fe14",
"#J c #040e04",
"#K c #5cfe5c",
"#L c #04ee04",
"#M c #0cfe0c",
"#N c #3c0a3c",
"#O c #047a04",
"#P c #04ce04",
"#Q c #4c064c",
"#R c #ec52ec",
"#S c #043a04",
"#T c #2c0a2c",
"#U c #2cfe2c",
"#V c #04ae04",
"#W c #041e04",
"#X c #9c2a9c",
"#Y c #049e04",
"#Z c #04de04",
"#0 c #04be04",
"#1 c #1cfe1c",
"#2 c #048e04",
"#3 c #4cfe4c",
"#4 c #0cf60c",
"#5 c #1c061c",
"#6 c #3cfe3c",
/* pixels */
".v#L#r#n.v#t.u#0#E#Y#n#V#c#4#t#I#I#A#Z#h#3.H#B.g#O#P#4#6#Y.F.g#B",
"#Z#1.g#1.2#0.g#B#1#1#4.G.l.g#I.y#r.H#2#t.J.#.J#3.7#2#M#e#0#Z.k#n",
"#0#E.P.B#Z#Z#L.o#p#D.T.r.o.o..#Y.m.y#P.P.J.M#r#Z#U#Y.V.0.v#O#B.0",
"#n#B.K.g#B.B.s#m...a.6.....n#J#I#Z#6#L.1#1#n#V.v.0#r#P.P.y.g#4#6",
".1.e#1.l.B#S.q.4.4.....t....#J.b.v.7.U.F#E#B.F.u.m#0#v.i..#Z.K#k",
"#t#r#r#Z.j.s....#i..#P#J......#U#r#.#g#I.K.b.v.1.g...9#y..#h.g#P",
"#U#1.v#w#m...A..#i.g.y.o.......1.m#3#4#6#Z.2#F.J#r.s...O#J.g#P.l",
".V.V#J.s.......G.P#B.g...I..#i.J#L#6.4.f.G.s...b.4.Z..#u.o.o..#P",
"#6.g.Z.........J#n#6.K.b..#i#V.b.4.A#5#i#q...a.o.3.....A.x#f...z",
"#P#I#H....#i.G#1.l.J#B.5.0.1#B.4#R.W.s#l.....s.4.4..........#i.1",
"#0.g#b...s..#i#1.s#o#J.h.o#v#P.X...Y.c#B.t.......4..#a.....B#U#Z",
".K#2....#b#J.b#K.Z.........4...q...N#1.8.4..#q#i.X..#5....#3.y#U",
"#n#r.....d.4.y#0.o.s....##.4#w.L..#s#X.....4..#J.S...4#i...F#C.K",
"#t.P........#..1.g#k......#J#i.....p.Z.C...G..#k#J..#a#i#i.l#P#U",
".g.u#q..#N.G.2.l#V.m.....Q#i#w.............4.g#U#J..#x..#t.P#P#0",
"#r#I.G...s...G.g.K.G...q..#i..........#E.y#J#i#a#z...D..#n.K.g.b",
"#B.J#J#G...Y#J#U.b#J..#u..#B...9..#s.o.s.s#j.X.s....#i.4.G#i.g#k",
"#B.B.b..#T..#q.Z.o.o..#d..#O#B#J........#Q.R...G.j..#y.E..#J#i#3",
".1#6#U.b.h.Z.r..#q#a#s#J#i.P.v#O#p.Z.t.Z.G...s#L#a.f#j.Y#J.G#i.J",
"#..2#P#t#6..#w..#W.o#i#i...w#4#Z#Z.l..#i.o#i#L.1#M............#I",
".#.P.1.m.1.K#1.V..#J.G#1#B#g.e.g#V#B.M#I.e#r#I.e#r.m.....l#L.P#0",
".B#r.J.1#Z#.#V#t#n.1.V.J.1#P#Z#n#k#M.g#.#h.F#0#1#U#1.g#3.2#L.z.H"
};
