/* XPM */
static char *neighbors[] = {
/* width height num_colors chars_per_pixel */
"    32    22       18            1",
/* colors */
". c #ccb3ef",
"# c #000000",
"a c #0000ff",
"b c #00ff00",
"c c #ff0000",
"d c #006600",
"e c #ffccff",
"f c #ffffcc",
"g c #806666",
"h c #806699",
"i c #8066ff",
"j c #809966",
"k c #809999",
"l c #8099ff",
"m c #80ff66",
"n c #80ff99",
"o c #ff6666",
"p c #ff9999",
/* pixels */
"k...............................",
"................................",
"....poopoopo....................",
"....c......c....................",
"....c.cccc.c....................",
"....c......c##############......",
"....c.cccc.c.............#......",
"....cpccccpc.............#......",
"......................aaaaaaaa..",
"......................a.iii..a..",
"......................a.aa.aaa..",
"........kgkgkggggggggga.aallla..",
"........#gggghkkkkkkkja.lll..a..",
"........#.............aaaaaaaa..",
"........#.......................",
"........#.......................",
"........#......e................",
"....mmmndnnm....................",
"....b......b...........e........",
"....b.bbbbbb.................f..",
"....b.bbbbbb....................",
"....bnmmmmmb...................."
};
