/* XPM */
static char *print_yellow[] = {
/* width height num_colors chars_per_pixel */
"    32    22        5            1",
/* colors */
". c #c0c0c0",
"# c #186a15",
"a c #7f7f7f",
"b c #f7fb00",
"c c #237ceb",
/* pixels */
"bbbbbbbbbbb#bbbbbbbbbbbb#aabbbb.",
"bbbbbbbbbbb#bbbbbbbbbbbb#aabbbb.",
"bbbbbbbbbbbbbbbbbbbbbbb#aabbbbb.",
"bbbbbbbbbbbbb#########b#aabbbbb.",
"bbbbbbbbbb#b#########b#aabbbbbb.",
"bbbbbbbbb#b#########bbaabbbbbbb.",
"bbbbbbbb#bbbbbbbbbbbb#abbbbbbbb.",
"bb###########################bb.",
"bb###########################bb.",
"bb#bbbbbbbbbbbbbbbbbbbbbbbbb#aa.",
"bb#bbbbbbbbbbbbbbbbbbbbbbbbb#aa.",
"bb#bbbbbbbcbbbbbbbbbbbbcbbbb#aa.",
"bb#bbbaaabcbbbaaabbbbbbcbbbb#aa.",
"bb#bbbaaabcbbbbbbbbbbbbcbbbb#aa.",
"bb#bbbaaabcbbbbbbbbbbbbcbbbb#aa.",
"bb#bbbaaabcbbbbbbbbbbbbcbbbb#aa.",
"bb#########################aabb.",
"bbbb#bcccccccccccccccccccb#aabb.",
"bbbb#bbbbbbbbbbbbbbbbbbbbb#aabb.",
"bbbb#bbbbbbbbbbbbbbbbbbbbb#aabb.",
"bbbbb#####################aaabb.",
"................................"
};

