/* XPM */
static char *progs[] = {
/* width height num_colors chars_per_pixel */
"    32    22      125            2",
/* colors */
".. c #04da14",
".# c #840284",
".a c #ac5aac",
".b c #440244",
".c c #c402c4",
".d c #641e64",
".e c #842684",
".f c #640264",
".g c #cc36cc",
".h c #240224",
".i c #a402a4",
".j c #e402e4",
".k c #441644",
".l c #6c126c",
".m c #340234",
".n c #fc16fc",
".o c #fc76fc",
".p c #b426b4",
".q c #740274",
".r c #8c168c",
".s c #540254",
".t c #ac16ac",
".u c #fc46fc",
".v c #f40ef4",
".w c #140214",
".x c #fc26fc",
".y c #340a34",
".z c #fc56fc",
".A c #fc36fc",
".B c #940294",
".C c #642e64",
".D c #240e24",
".E c #b402b4",
".F c #a432a4",
".G c #c416c4",
".H c #943a94",
".I c #640a64",
".J c #f402f4",
".K c #541254",
".L c #740a74",
".M c #540a54",
".N c #140e14",
".O c #7c167c",
".P c #7c2e7c",
".Q c #d402d4",
".R c #9c269c",
".S c #2c022c",
".T c #6c1a6c",
".U c #3c023c",
".V c #fc1efc",
".W c #ac2aac",
".X c #8c1e8c",
".Y c #5c025c",
".Z c #bc12bc",
".0 c #fc4efc",
".1 c #fc0efc",
".2 c #1c021c",
".3 c #fc2efc",
".4 c #3c0a3c",
".5 c #fc5efc",
".6 c #fc3efc",
".7 c #940e94",
".8 c #b40ab4",
".9 c #0c020c",
"#. c #8c028c",
"## c #4c024c",
"#a c #6c026c",
"#b c #ac02ac",
"#c c #ec0aec",
"#d c #341a34",
"#e c #4c124c",
"#f c #fc7efc",
"#g c #7c027c",
"#h c #941a94",
"#i c #b41ab4",
"#j c #9c029c",
"#k c #2c0a2c",
"#l c #6c0e6c",
"#m c #f40af4",
"#n c #7c0a7c",
"#o c #c44ec4",
"#p c #440644",
"#q c #cc02cc",
"#r c #640664",
"#s c #a406a4",
"#t c #ec02ec",
"#u c #741674",
"#v c #340634",
"#w c #fc1afc",
"#x c #bc22bc",
"#y c #8c1a8c",
"#z c #ac1aac",
"#A c #fc4afc",
"#B c #140614",
"#C c #fc2afc",
"#D c #340e34",
"#E c #fc5afc",
"#F c #940694",
"#G c #bc02bc",
"#H c #cc1ecc",
"#I c #9c3e9c",
"#J c #5c125c",
"#K c #5c0e5c",
"#L c #7c327c",
"#M c #dc02dc",
"#N c #2c062c",
"#O c #741a74",
"#P c #3c063c",
"#Q c #fc22fc",
"#R c #bc2ebc",
"#S c #fc52fc",
"#T c #fc12fc",
"#U c #1c061c",
"#V c #bc3ebc",
"#W c #bc0ebc",
"#X c #3c1e3c",
"#Y c #fc0afc",
"#Z c #fc32fc",
"#0 c #3c0e3c",
"#1 c #fc62fc",
"#2 c #fc42fc",
"#3 c #8c068c",
"#4 c #8c2a8c",
"#5 c #4c164c",
"#6 c #fc82fc",
/* pixels */
"................................................................",
"................................................................",
"................................................................",
"................................................................",
"........#w#G#M.x.c#k.9..........................................",
".........w#q#3.L#S.Q.S..........................................",
".........9#w.g.P.b#A.B.h.......9.9.......w.9.........9.9........",
"..........#S#H.I.h.6#b.S#w.2.3#C#v..#t#Z#G.S.9....#m#G#P.w......",
".........9#2#R#p#M.A.E.x#w.i.o.6#L#S.M.f.c.V.k.9#2.e.H.u.Q##.2..",
"........#2.u#b.m.v#A#b.1#T#V#O#F.L#E.X.T.y.Q#n.j.3.p.O#M#.#g#N..",
"........#Q#q.0#q#G#.#u#t#f.W.m#P#G#M#z#0.w.x#i.J.j#R.b#w#o.I.9..",
"........#A#M.i#L.q.f.y#T.E.#.D.w#m#A.F.2.9.6.Z##.j#R#G.n.8#p.9..",
".........A#t.e#X#k.w..#1#j.P.9...v#m#I#U#Y.5.a#d.K#Y.x.#.I.N....",
".........Q.V##.w......#Z#W.T.9...3#S.R.h#M#m.q.2.3.7#..T.h.9....",
".......9#Q.G.Y.9.......A.G#J.....h.Q#s#0#Z.s###B.A#b#Q#K#U......",
".......w.P.t#r.w......#l#h.m.......K.Y.Y#a#O#U#6.C.r.u#Q.l#U....",
".......9.k.C.U.w.......m#e.w......#U###e#5#v#c#2#4.f#a.v#i.m....",
"...........9...........................9....#2#m#..4.D#C#x.S....",
".............................................2#w.z#1#E#y.X.2....",
"...............................................S.U.f.d###k......",
"...............................................9.h#D#N#U.9......",
"................................................................"
};
