/* XPM */
static char *ps2[] = {
/* width height num_colors chars_per_pixel */
"    32    22      202            2",
/* colors */
".. c #040604",
".# c #048a0c",
".a c #1cce24",
".b c #6cde5c",
".c c #24ee24",
".d c #740204",
".e c #044e04",
".f c #44ca1c",
".g c #0c6e0c",
".h c #4cea24",
".i c #1cae24",
".j c #4cf624",
".k c #24da1c",
".l c #0c760c",
".m c #54fa44",
".n c #44da24",
".o c #94fe84",
".p c #6cfe44",
".q c #a40604",
".r c #640204",
".s c #248a0c",
".t c #0c2e04",
".u c #34c614",
".v c #84fe64",
".w c #1c5214",
".x c #5cf634",
".y c #54e23c",
".z c #1c620c",
".A c #2cba14",
".B c #44de1c",
".C c #1c6a04",
".D c #247204",
".E c #b42224",
".F c #4cfe2c",
".G c #2c9a0c",
".H c #74fa64",
".I c #041604",
".J c #34d614",
".K c #5cfe44",
".L c #1c5a14",
".M c #1c661c",
".N c #44e23c",
".O c #247e14",
".P c #5cce4c",
".Q c #0c3e0c",
".R c #34ce0c",
".S c #3cfa24",
".T c #4cde1c",
".U c #14a214",
".V c #3ce624",
".W c #8c0204",
".X c #14420c",
".Y c #44c644",
".Z c #4cf224",
".0 c #3cb21c",
".1 c #0c5a04",
".2 c #ac1614",
".3 c #84fe74",
".4 c #34c214",
".5 c #24a61c",
".6 c #24b224",
".7 c #54f634",
".8 c #247214",
".9 c #041e04",
"#. c #2cc62c",
"## c #3cde14",
"#a c #245a14",
"#b c #144a0c",
"#c c #6cfe5c",
"#d c #3cc614",
"#e c #246214",
"#f c #bc2e2c",
"#g c #54fe2c",
"#h c #7cfe64",
"#i c #64fe54",
"#j c #3cfe2c",
"#k c #3cf234",
"#l c #145a0c",
"#m c #2c721c",
"#n c #141e04",
"#o c #44d21c",
"#p c #5ce644",
"#q c #2cae0c",
"#r c #4cfe44",
"#s c #4cd624",
"#t c #a40e0c",
"#u c #34920c",
"#v c #1c3614",
"#w c #5cfe34",
"#x c #1c6214",
"#y c #24c214",
"#z c #44e21c",
"#A c #246a14",
"#B c #2cce14",
"#C c #1c5e1c",
"#D c #24621c",
"#E c #243a0c",
"#F c #1ca614",
"#G c #44e61c",
"#H c #9c0204",
"#I c #8cfe74",
"#J c #34a614",
"#K c #149214",
"#L c #24ca1c",
"#M c #840204",
"#N c #54e63c",
"#O c #4cfa34",
"#P c #2cd634",
"#Q c #1c7e0c",
"#R c #74fe4c",
"#S c #0c3604",
"#T c #8cfe6c",
"#U c #1c560c",
"#V c #34fe34",
"#W c #1c6604",
"#X c #2cbe14",
"#Y c #2c9e0c",
"#Z c #2cca24",
"#0 c #64fe44",
"#1 c #2c7a1c",
"#2 c #143a04",
"#3 c #84ee7c",
"#4 c #acfea4",
"#5 c #5cee44",
"#6 c #44d244",
"#7 c #34e22c",
"#8 c #b41e1c",
"#9 c #c43634",
"a. c #147e0c",
"a# c #54f65c",
"aa c #2caa24",
"ab c #24aa14",
"ac c #44f634",
"ad c #3cbe24",
"ae c #2ca20c",
"af c #44fe24",
"ag c #4cd224",
"ah c #34f624",
"ai c #3cce14",
"aj c #1c9e0c",
"ak c #1c4614",
"al c #ac1214",
"am c #2cea24",
"an c #5cde3c",
"ao c #0c1e04",
"ap c #1c4a0c",
"aq c #54f22c",
"ar c #64fe3c",
"as c #7c0204",
"at c #54ea24",
"au c #2cda1c",
"av c #940204",
"aw c #74fe5c",
"ax c #54fe3c",
"ay c #54fe44",
"az c #34921c",
"aA c #14560c",
"aB c #a40a0c",
"aC c #34ca0c",
"aD c #4ce224",
"aE c #ac1a1c",
"aF c #3cca14",
"aG c #145e04",
"aH c #24661c",
"aI c #44ea1c",
"aJ c #143e0c",
"aK c #3cc21c",
"aL c #1ca214",
"aM c #040a04",
"aN c #0c3204",
"aO c #b42624",
"aP c #74fe64",
"aQ c #14460c",
"aR c #44ca44",
"aS c #24b624",
"aT c #042204",
"aU c #144e0c",
"aV c #4cda24",
"aW c #9c0604",
"aX c #24ce1c",
"aY c #2c7e1c",
"aZ c #3cd214",
"a0 c #44da2c",
"a1 c #6cfe4c",
"a2 c #84fe6c",
"a3 c #44de24",
"a4 c #2cc61c",
"a5 c #4cde24",
"a6 c #24721c",
"a7 c #3cde1c",
"a8 c #3cc61c",
"a9 c #54fe34",
"b. c #7cfe6c",
"b# c #3cfe34",
"ba c #5cfe3c",
"bb c #44e224",
"bc c #1c5614",
"bd c #3cd624",
"be c #64fe4c",
"bf c #1c5e14",
"bg c #54fa34",
"bh c #145e0c",
/* pixels */
"avav.W#H#Mal#M.d#H.q.WalavavaE#H#M#taBaBaB#H#taW#H#Havav.WaE#taO",
"#Hav.2#HaE#H.2.qav#Has#8av#Halalas#MaB#H#H.WavaB.d.q.W#8#MaB#H#M",
"#Mal.W.qav#taval.W#H#HaBavaE.W#Has.W.qasav.2avalav#M#HaB.WaOaval",
".d.2#t#H#H#W.G#Y.s#..5#Q.Y.l.W.WaB.2#H.dasaaaM#6#P#N.s.N#JaB#H#H",
".q.Eal.W#t#paDbe.Fa4#U#n.s.caKaraB#HavaB.I.w#J.4#ha1.3.7#WaNavav",
"#Mas.E#8asava2#0aw.K#C#2baa9.Bau#L#taWaRbaaq#X#S.W#tba#1bf#Mav.2",
"aEalasasasas#F.F.p#jaQav.G.f#dara3aE#l#5.Z.JaAav.d#H#3bbaHaE#H.W",
"#HaE#M.W#M.CaP#O.8.O#H.q#f.a#haX#A#2.s#laI.o#DaB#M#H.6a0#l.q.W#H",
".W#8av#Hal.Pbdam#0a6.W#HaW.G#w.v#R#e.ta9#y#m#m.2aE#H#HaB.2.qaW#H",
".q#M#8av#t.g#4bgaV.L.q#M.e.ma7a9azaWa.a5ar#O.Tbaal#H#H#H.Wav#M#H",
"#tavaB#H#H#Z#mbb#IaJasaEan.F.V.C#A#t.qaP.zaZaC.z.A#Y#M#H#H#H#H.W",
"as.W#M#H.qak.UaeaD#J.##K.Sa1.j.M#tavav.2#kahbha8#h.8#Gas#Hav#H#H",
"#Has.WavaGa#aS.J#r#a.nbd#ha9.O#2#t#Hav.W.q.t#n.3aL#B.3b##H.2av.W",
"#M.d.q.W..#c.x#jaYapb..fbc#a.W.Eav#Mavav.WaWavadahaFa2#w.X#9#H#H",
"av.W#8.2.i#o#T#w.L.d.W.d#HaW.qaW#8.5#E.I.q#M#H.Wbb.B#0.VaUav#8#H",
"as.2.2aB.b#saf#r.Qaval#t.W.dal#t#Hao#n.0alav#tas.1#q.hat#b.W#H.W",
"av.W.qav.U#o#haqal#Hal.E#H.2al#H#H.y.fa2aE#MasaEaT#u#raC#H#H#t#H",
".q#HavaMaybaa4aZaEaW.W.q#H.qavav.Dajaia1.0#..9#pabbca9#x#H#H#Has",
"aEav.1b.#7#zba##.u.X#8aW#HaE.d.2.2.Hbg#y.k#g.BaF#VagaH.d#H#M#H#H",
"alavav#v#e#iac.A.7.w#f#H#t#t#H#H.Wav.Eax.A.h.Ra9.w#H#M#H#HaE#H#H",
"aB#HaB#M.Eav.2#MaBaEavaB#HavalasaB.W.qaBav.Eavav#M.W#H#Mal#M#H#H",
".r.d.W.Wavalav#Havasalav#Mav.WalaW#t#H.d.d#H#H#H#H#H#Mav#H.d#M#H"
};
