/* XPM */
static char *help[] = {
/* width height num_colors chars_per_pixel */
"    32    22      241            2",
/* colors */
".. c #040204",
".# c #0c8e04",
".a c #840509",
".b c #8c4a0c",
".c c #c90207",
".d c #cc2614",
".e c #044704",
".f c #c44214",
".g c #480404",
".h c #8c861c",
".i c #cc6634",
".j c #e4030c",
".k c #e42321",
".l c #88b648",
".m c #042604",
".n c #9c260c",
".o c #d4825c",
".p c #e41513",
".q c #84660c",
".r c #4c2a2c",
".s c #e4433c",
".t c #dc7a7c",
".u c #f45250",
".v c #280304",
".w c #a90d0c",
".x c #690204",
".y c #4c4a04",
".z c #e88484",
".A c #f41414",
".B c #e46a64",
".C c #c41413",
".D c #fc2519",
".E c #242408",
".F c #04fe04",
".G c #bc4214",
".H c #fc325c",
".I c #449204",
".J c #f44444",
".K c #c49e8c",
".L c #f4361c",
".M c #ac1514",
".N c #fc7654",
".O c #ac662c",
".P c #041204",
".Q c #fc1238",
".R c #441214",
".S c #94a22c",
".T c #54660c",
".U c #44ae14",
".V c #fc0204",
".W c #fcb69c",
".X c #241214",
".Y c #6c120c",
".Z c #d41612",
".0 c #e92a21",
".1 c #043804",
".2 c #ac3c0c",
".3 c #8c720c",
".4 c #f41c18",
".5 c #f4624c",
".6 c #b45410",
".7 c #9c1214",
".8 c #046e04",
".9 c #ec5e58",
"#. c #370304",
"## c #f42a2c",
"#a c #940204",
"#b c #d40604",
"#c c #e43b3a",
"#d c #e41a18",
"#e c #740204",
"#f c #fb4e4c",
"#g c #eca294",
"#h c #f46e5c",
"#i c #140204",
"#j c #570304",
"#k c #ac8a38",
"#l c #ec4b48",
"#m c #b90204",
"#n c #fc9594",
"#o c #3c3a0c",
"#p c #b51414",
"#q c #6c9e1c",
"#r c #fcaecc",
"#s c #880a0c",
"#t c #8c5254",
"#u c #a4de5c",
"#v c #b42a14",
"#w c #6c2a04",
"#x c #5c5e0c",
"#y c #382404",
"#z c #fc433f",
"#A c #fc3b3a",
"#B c #e42d2e",
"#C c #fc1c1a",
"#D c #fca684",
"#E c #070e0c",
"#F c #075b04",
"#G c #c46654",
"#H c #ec0d09",
"#I c #042c04",
"#J c #dc962c",
"#K c #946214",
"#L c #fc8384",
"#M c #c41a1c",
"#N c #b4423c",
"#O c #171314",
"#P c #6c6e0c",
"#Q c #f60c0c",
"#R c #d41d0f",
"#S c #fc5a44",
"#T c #340a0c",
"#U c #8c0507",
"#V c #c90e0c",
"#W c #c42a0c",
"#X c #440b09",
"#Y c #b4bc48",
"#Z c #ec1314",
"#0 c #ec4442",
"#1 c #fc7d7c",
"#2 c #cc1312",
"#3 c #fc2324",
"#4 c #648204",
"#5 c #fa7474",
"#6 c #5c1e04",
"#7 c #b4a654",
"#8 c #fcbea4",
"#9 c #3ca604",
"a. c #346a04",
"a# c #743a34",
"aa c #ec9a64",
"ab c #6c4a34",
"ac c #fc827c",
"ad c #7c9214",
"ae c #cc5e14",
"af c #a47a1c",
"ag c #6cae24",
"ah c #bc5254",
"ai c #a45e54",
"aj c #6c5604",
"ak c #7c7e0c",
"al c #7c2a2c",
"am c #473b31",
"an c #fc76b4",
"ao c #1c3204",
"ap c #047e04",
"aq c #d43e34",
"ar c #a44c4c",
"as c #94ae44",
"at c #b8964c",
"au c #5c9a04",
"av c #bcd65c",
"aw c #54a624",
"ax c #acca4c",
"ay c #2cb214",
"az c #bc6a14",
"aA c #d46e6c",
"aB c #849214",
"aC c #545a34",
"aD c #642224",
"aE c #382824",
"aF c #946b0c",
"aG c #b04e4c",
"aH c #a4a63c",
"aI c #dc7654",
"aJ c #fc9c98",
"aK c #905610",
"aL c #680c08",
"aM c #a41c10",
"aN c #471b1c",
"aO c #760d0a",
"aP c #b70d0c",
"aQ c #bc360c",
"aR c #74a61c",
"aS c #fca8a4",
"aT c #1c0e04",
"aU c #341604",
"aV c #145a14",
"aW c #0c2a24",
"aX c #bc5a1c",
"aY c #242e04",
"aZ c #bc4e10",
"a0 c #d48e5c",
"a1 c #fc3e5c",
"a2 c #142404",
"a3 c #ec7e7c",
"a4 c #fcc0c0",
"a5 c #0c1a14",
"a6 c #fc0224",
"a7 c #9c720c",
"a8 c #fb3433",
"a9 c #fa6564",
"b. c #bc5624",
"b# c #cc3634",
"ba c #3c0418",
"bb c #fc0a24",
"bc c #684848",
"bd c #cc4a14",
"be c #d60e0c",
"bf c #cc6e5c",
"bg c #049604",
"bh c #240a04",
"bi c #9ca244",
"bj c #64a61c",
"bk c #fc7a74",
"bl c #64b624",
"bm c #54ae34",
"bn c #8c9228",
"bo c #fcb2b4",
"bp c #fc5c5c",
"bq c #d4221c",
"br c #ec020c",
"bs c #ec6654",
"bt c #fc2d24",
"bu c #fc6b6a",
"bv c #9c6311",
"bw c #947a1c",
"bx c #fc1a3c",
"by c #fc8a88",
"bz c #043e04",
"bA c #1c3a04",
"bB c #bc3e0c",
"bC c #0c1214",
"bD c #dc3e3c",
"bE c #ec2621",
"bF c #ec3332",
"bG c #a42814",
"bH c #fc5554",
"bI c #fc140f",
"bJ c #b46a34",
"bK c #741604",
"bL c #dc1514",
"bM c #f45a54",
"bN c #dc0a0c",
"bO c #ec3c3c",
"bP c #ec1c1c",
"bQ c #bc2610",
"bR c #ec2c2c",
"bS c #746a04",
"bT c #cc2e14",
"bU c #4c0a04",
/* pixels */
"bF#B#dbN.A..bkbp.vbcbu.u#CaObu...H.Qbb.j#Ra2#6#8abbt.4.p#C..#C#M",
"#d.pbe#V#U...u.J#C..aqa8.k..a1.a.F.F.F.F.c#O..#D.NbK.D#C#C.gbU..",
".A#V#VaP..#f#Z.Z#p#saha5a6.F.F.F.F.F.F.F.F.F.F.6aZaC.Waca9#A..bH",
"a3bC#iaP#3#3#M#.#O#1#0bx.F.F.F.Fa.ak#P.F.F.F.Faj#FatbJaqbqbI.aa8",
"a9.J#C.xboacbH..bpbOa6.F.F.F.F.Fbg#u#Y.1.F.F.F.F#q.hbv#W#R.CbLbP",
"bp###a..#lbO#Q#j#f#Bbrbr.F.F#k.Sawa7#Ka2.F.F.F.F.#aBaFaQ#W.CaP..",
"..#C..bubR.kbL.AbI#Q#2aM#I.mbibw.e.ba2...F.F.F.Fauap.T.2bQ..amaS",
"#X#s#5bubF.p.C.C.v.c.Pbf#S.P.i.2ao.P#g.F.F.F.F.I#9#4.q#wamaJ#hbF",
"..aGaN#z#H.CaP#sbca4bM#l.4.Dbt.n..#r.F.F.F.F.Fay.U#J.1#D#G..#m#V",
"#5bH.g.x.x......#n.9.Abe.M#pbh.....F.F.F.F.lblbjadaeaY.5.sa8#3..",
"...c...zbybu#A#j#A#Q#p#p.v...F.F.F.F.F.yapag#q.3#K.G.L#zbFbebeac",
"aJ..bu#0bP.j.w#V.g#U..am..an.F.F.Fazak.8axbnbwaZ.f#v.daL.4.a..#0",
"by#z..#QaP.w.v..a3bo.u.0#e...F.F#Fav#Y.e#7aXbBbGbG.MaL......#5.V",
"bO#Z.p..#Oar#6.r#z#3.p.Cba.F.F.F#FaHafbA#o#WbG.Y.....B#fbE....#E",
"#a.v....a9#lbR#C....#i..#hbDbd#KbS.eaK#y..aWai.X#Na8bR#Q#2..bHbE",
"#5#fbtbt.Rbt.p#d#a..a#ba.F.F.F.F#xbz.O..aS.9#0#Q#C#s#Z.C.M.v#X#2",
"bRbE#QbL..aL....a9.J.Q.F.F.F.F.F.T#k.6..bf#d.pbeaP..............",
".4#Z#2#2..b##5bp#c#d.j.F.F.F.F.FbmbSaK.EaU.v..aAaca8.va9#Aa8..#f",
"..aP.w..bubF...7#p#p.a#..F.F.F.laRaF.1...KaJ#hbFbEbL.AbRa8a8..#c",
"#jaD..#1#BbLbe.g.x..bs.Eaaatasbn.3aVa0..bfbFbr#p#p#p#s....#5..#c",
"aE#f..#T#Q#HaPbea4#L#l#z...ob.bd#IaIbT#X.vbL.ZaO.....t.5bD.V..#B",
"bp##.v#taraG#E..aT#5bF.0.kbKbt...9#Bbe#jaE#n#LalaNbRbq#b#m#m..#C"
};
