/* XPM */
static char *reset[] = {
/* width height num_colors chars_per_pixel */
"    32    22       10            1",
/* colors */
". c #cede1d",
"# c #2d7cf2",
"a c #003333",
"b c #403333",
"c c #406666",
"d c #ffcccc",
"e c #806666",
"f c #809999",
"g c #bf9999",
"h c #bfcccc",
/* pixels */
".........hgghhhhhhhh............",
"........hebbbbccbbbeh...........",
"....hfffca#########begh.........",
"....e################bh.........",
"....e###bfhhhghhhhhgb#beh.......",
"..dhe##beh.........hea#bg.......",
"..e###bh.............hcbh.......",
"..e###bh.............hfgd.......",
"..f###bh........................",
"..f###bg........................",
"..e###bh.......dhhhhhhhghhh.....",
"..e###bh.......f##########f.....",
"..e###bg.......heb########f.....",
"..gba#bfh........f########f.....",
"..dhc##beh.......f########e.....",
"....e###beffefffeb########f.....",
"....f#####################f.....",
"....dhhhfb#########bfghfb#e.....",
"........hebbccccccbeh..hccf.....",
"................................",
"................................",
"................................"
};
