/* XPM */
static char *save2[] = {
/* width height num_colors chars_per_pixel */
"    32    22       54            1",
/* colors */
". c #ffffff",
"# c #000000",
"a c #800000",
"b c #0000ff",
"c c #ffff00",
"d c #000033",
"e c #000066",
"f c #000099",
"g c #400033",
"h c #400066",
"i c #400099",
"j c #403333",
"k c #403366",
"l c #403399",
"m c #4033cc",
"n c #4033ff",
"o c #406666",
"p c #406699",
"q c #4066cc",
"r c #4066ff",
"s c #ffcccc",
"t c #ffff33",
"u c #ffff66",
"v c #ffff99",
"w c #ffffcc",
"x c #803300",
"y c #803366",
"z c #803399",
"A c #806633",
"B c #806666",
"C c #806699",
"D c #8066cc",
"E c #8066ff",
"F c #809933",
"G c #809966",
"H c #809999",
"I c #8099cc",
"J c #8099ff",
"K c #bf6600",
"L c #bf6666",
"M c #bf6699",
"N c #bf66cc",
"O c #bf9900",
"P c #bf9933",
"Q c #bf9966",
"R c #bf9999",
"S c #bf99cc",
"T c #bf99ff",
"U c #bfcc00",
"V c #bfcc33",
"W c #bfcc66",
"X c #bfcc99",
"Y c #bfcccc",
"Z c #bfccff",
/* pixels */
"feeeeeeeeeefffffffffffeeeeffffff",
"feeeeeeeeeefffffffffffeeeeeeeeee",
"effffffffffee.aaa.eeeeffffffffff",
"efffffffffI...aaa...ffeeeeeeeeee",
"feekPcVAAQw...aaavccccVFFkffffff",
"effBUAFWtctu..aaKcccvvSloAkfffff",
"efkPFflYvtccu.ggcccu...SlAVkffff",
"efFFeeI...vcceeeec......DfAAeeee",
"efGFeI......eeeeeff......DeAFfff",
"efFFeI....Ieeeeeeffe.....CeAFeee",
"feAAegaaaagfffffffffaaaaageFAeee",
"efBAegaaaageeFFFffffaaaaahfGAfff",
"feAAflMMMMkffcBAFFeeRRLLLkeFBfff",
"feFFeI......ccfffcc......DfBFeee",
"feFcAeD......eeeee......DffAGffe",
"feeFBfD.......eee.......DffAFeef",
"effkVVFQv.....aaa.....YleeAAfeee",
"efffkFAAGS....aaa....uHffeAAeeee",
"efffffffflS...aaa...DcFfoFFkeeee",
"efffffffffeff.aaa.eefeGccAffffff",
"efffffffffeffffffeffeeffffeeeeee",
"efffffffffefffffffffffeeffeeeeee"
};
