/* XPM */
static char * save_xpm[] = {
"32 22 2 1",
" 	c #0000FFFFFFFF",
".	c #51515151FBFB",
"                                ",
"                                ",
"                                ",
"                                ",
"                                ",
"   ... .                        ",
"  .   ..                        ",
" .     .                        ",
" .          ...  ...  ...  ...  ",
"  ..       .   .  .    .  .   . ",
"    ...    .   .  .    . .    . ",
"       .     ...   .  .  ...... ",
"        .  ..  .   .  .  .      ",
" .      .  .   .    . .  .      ",
" ..    .   .  .. .  ..    .   . ",
" . ....     .. ..    .     ...  ",
"                                ",
"                                ",
"                                ",
"                                ",
"                                ",
"                                "};
