/* XPM */
static char *detail[] = {
/* width height num_colors chars_per_pixel */
"    32    22      129            2",
/* colors */
".. c #00a507",
".# c #840284",
".a c #a452a4",
".b c #440244",
".c c #4c264c",
".d c #640264",
".e c #240224",
".f c #cc3acc",
".g c #a402a4",
".h c #4c124c",
".i c #e402e4",
".j c #6c1a6c",
".k c #fc42fc",
".l c #540254",
".m c #f412f4",
".n c #640e64",
".o c #ac26ac",
".p c #340234",
".q c #fc62fc",
".r c #a412a4",
".s c #1c121c",
".t c #140214",
".u c #fc22fc",
".v c #440a44",
".w c #f402f4",
".x c #fc32fc",
".y c #743a74",
".z c #740274",
".A c #843284",
".B c #5c125c",
".C c #fc52fc",
".D c #340a34",
".E c #540e54",
".F c #b412b4",
".G c #140a14",
".H c #940294",
".I c #d402d4",
".J c #6c266c",
".K c #240a24",
".L c #b402b4",
".M c #fc1afc",
".N c #741274",
".O c #ac36ac",
".P c #fc7afc",
".Q c #941e94",
".R c #4c024c",
".S c #441a44",
".T c #7c227c",
".U c #fc4afc",
".V c #3c023c",
".W c #fc6afc",
".X c #a41aa4",
".Y c #1c021c",
".Z c #fc2afc",
".0 c #4c0a4c",
".1 c #f40af4",
".2 c #fc3afc",
".3 c #740a74",
".4 c #943694",
".5 c #7c367c",
".6 c #0c020c",
".7 c #8c0a8c",
".8 c #c40ac4",
".9 c #2c022c",
"#. c #ac02ac",
"## c #ec02ec",
"#a c #7c167c",
"#b c #5c025c",
"#c c #fc12fc",
"#d c #bc26bc",
"#e c #8c168c",
"#f c #7c027c",
"#g c #541a54",
"#h c #fc5afc",
"#i c #3c0a3c",
"#j c #5c0a5c",
"#k c #7c0e7c",
"#l c #8c028c",
"#m c #c442c4",
"#n c #440644",
"#o c #cc02cc",
"#p c #6c026c",
"#q c #240624",
"#r c #a406a4",
"#s c #4c164c",
"#t c #741674",
"#u c #fc46fc",
"#v c #540654",
"#w c #b42eb4",
"#x c #340634",
"#y c #fc66fc",
"#z c #140614",
"#A c #fc26fc",
"#B c #f406f4",
"#C c #fc36fc",
"#D c #744674",
"#E c #8c328c",
"#F c #5c165c",
"#G c #bc16bc",
"#H c #9c029c",
"#I c #dc02dc",
"#J c #240e24",
"#K c #bc02bc",
"#L c #3c163c",
"#M c #fc1efc",
"#N c #b432b4",
"#O c #9c1e9c",
"#P c #4c064c",
"#Q c #4c1a4c",
"#R c #fc4efc",
"#S c #3c063c",
"#T c #fc6efc",
"#U c #ac1aac",
"#V c #1c061c",
"#W c #fc0efc",
"#X c #8c2a8c",
"#Y c #fc2efc",
"#Z c #4c0e4c",
"#0 c #fc3efc",
"#1 c #943a94",
"#2 c #0c060c",
"#3 c #ec06ec",
"#4 c #fc16fc",
"#5 c #8c1a8c",
"#6 c #7c067c",
"#7 c #fc5efc",
"#8 c #3c0e3c",
"#9 c #7c2a7c",
"a. c #7c127c",
/* pixels */
"................................................................",
"................................................................",
"...........................................................6....",
"................................................#A.M.t.6#R.p....",
".......6.6.6....................................#I##.9.W#c#D.6..",
".....2.U#M#Y.9.6................................#I#h#s#v#I#e....",
".....Y.i#l.J.M.V...............Z.t..............#x.l#S.9.2.j....",
".....K#y.z#Z#Y.C.Y.............1.9.6.....6#2.....Y#S.Y#V.U.E....",
".....6.W.N#z.l.W#8.6...W.2#q#y.I.0.G...i.Z.Z.D#2#A.9.6.i.u.b....",
"....#K.w.R...9#C#Z#2.M.R#M.l.2.1.2.D.6#o.T###k.L.I.3.6.x#I.R....",
"....#Y#R.0..#z#4.b.t#4.l.u.7#3.L.z#Q#u#6#b.M.H.p.M.a.6#K.k.b....",
"....#R#I.b...t.W.c.Y.l#j.u.r.Z#..0.9.1.A.D#u.O.9.w.z.t.2.8#L....",
".....I.f.V..#M#c.E#H#X#I.L.4.q#l#V.t.Z.l.t#o.Q.e.Q#e.6.P#H.e....",
"....#R.F.e..#o#d.S#R.I.M#p.B.M#U.t.6.2.E.6#T.b#u.7.l...Z#p.6....",
"....###r.t..#0#w.D#4#m#9.d.D#o#l.6.t#C#P#z.q.R#B.##Z.6#o#l.t....",
".....2.o.t.x#0#p.Y#0#G.E.q.e#A#f.t#V.m#g.w#W.h#h.X.0.6.i.o.6....",
"...6#7.g.K#A#N#F.t.M#M#i#K#i.I.y.U.9#C#t.Z.g#g.Z#U.R.6.M#..t....",
"..#M#o.W.x#X#5.K.6#L#W.q.V#i#M#A.l.p.1#I.5.k.n.x#c.2.K#7#o.s....",
"..#J#1#O.l.d#i.6...Y.##k#j#q.T#a.V#x.l#E.E.Q#j#S.Q#a.Ya.#l.Y....",
"...t#Z.p#n#x#2.....6.D.v.9#2.D.p.Y#2.Y.V.Y.p.9#V.p.p.Y.p.p.6....",
".....6.6.t.6.........6...6...6.6.......6...6.6...6.6...6.6......",
"................................................................"
};
