/* XPM */
static char *all5[] = {
/* width height num_colors chars_per_pixel */
"    32    22      121            2",
/* colors */
".. c #01c794",
".# c #010101",
".a c #030303",
".b c #040404",
".c c #050505",
".d c #070707",
".e c #080808",
".f c #090909",
".g c #0b0b0b",
".h c #0c0c0c",
".i c #0d0d0d",
".j c #0f0f0f",
".k c #101010",
".l c #121212",
".m c #131313",
".n c #141414",
".o c #161616",
".p c #171700",
".q c #181800",
".r c #1a1a00",
".s c #1d1d00",
".t c #1e1e00",
".u c #1f1f00",
".v c #212100",
".w c #212121",
".x c #222200",
".y c #242400",
".z c #252500",
".A c #272700",
".B c #282800",
".C c #2a2a00",
".D c #2b2b00",
".E c #2d2d00",
".F c #2e2e00",
".G c #303000",
".H c #313100",
".I c #333300",
".J c #343400",
".K c #363600",
".L c #373700",
".M c #393900",
".N c #3b3b00",
".O c #3c3c00",
".P c #3e3e00",
".Q c #3f3f00",
".R c #414100",
".S c #434300",
".T c #444400",
".U c #464600",
".V c #484800",
".W c #4a4a00",
".X c #4b4b00",
".Y c #4d4d00",
".Z c #4f4f00",
".0 c #535300",
".1 c #545400",
".2 c #565600",
".3 c #585800",
".4 c #5a5a00",
".5 c #5c5c00",
".6 c #5e5e00",
".7 c #666600",
".8 c #686800",
".9 c #6c6c00",
"#. c #6e6e00",
"## c #707000",
"#a c #727200",
"#b c #747400",
"#c c #787800",
"#d c #7a7a00",
"#e c #7c7c00",
"#f c #818100",
"#g c #838300",
"#h c #858500",
"#i c #8b8b00",
"#j c #8e8e00",
"#k c #909000",
"#l c #929200",
"#m c #969600",
"#n c #9a9a00",
"#o c #9f9f00",
"#p c #a1a100",
"#q c #a5a500",
"#r c #a7a700",
"#s c #abab00",
"#t c #adad00",
"#u c #b2b200",
"#v c #b4b400",
"#w c #b6b600",
"#x c #b8b800",
"#y c #baba00",
"#z c #bcbc00",
"#A c #bebe00",
"#B c #c0c000",
"#C c #c2c200",
"#D c #c6c600",
"#E c #c8c800",
"#F c #c9c900",
"#G c #cbcb00",
"#H c #cdcd00",
"#I c #cfcf00",
"#J c #d3d300",
"#K c #d8d800",
"#L c #dede00",
"#M c #e0e000",
"#N c #e3e300",
"#O c #e4e400",
"#P c #eaea00",
"#Q c #ebeb00",
"#R c #eded00",
"#S c #efef00",
"#T c #f2f200",
"#U c #f3f300",
"#V c #f6f600",
"#W c #f9f900",
"#X c #fafa00",
"#Y c #fbfb00",
"#Z c #fcfc00",
"#0 c #fdfd00",
"#1 c #ff0000",
"#2 c #ffff00",
/* pixels */
".w.b............................................................",
".w.b...........#.b.c.#.............#.......#.a.c.d.c.a..........",
".w.b.........b.i.s.t.i.a.....a.e.i.j.g.a.#.f.o.v.z.u.k.b........",
".w.b.......a.k.K#1#..G.h.#.a.l.C.O.Q.D.h.d.s.W#d#1#..I.h........",
".w.b.......g.M#1#1#1#l.z.c.f#1#1#1#1#e.s.i#1#1#1#1#1.7.o.#......",
".w.b.....#.r#1#1#1#1#L.Q.g.j#1#1#1#2#o.t.i.L#1#1#1#X.7.n........",
".w.b.....c.J#1#1#1#1#Y.1.j.i.8#1#1#2#h.n.e.E#1#1#1#O.U.h........",
".w.b...#.i#1#1#1#1#1#2.8.l.g.1#1#1#Z.6.g.d.F#1#1#1#z.D.c........",
".w.b...a.t#1#1#2#1#1#1#g.q.f.X#1#1#R.U.d.e.O#1#1#2#i.r.a........",
".w.b...d.H#1#2#2#1#1#1#o.u.h.2#1#1#M.O.c.g.W#1#1#2##.m.#........",
".w.b.#.i.Z#1#2#1#1#1#1#y.B.k#1#1#1#I.I.b.i.2#1#1#0.3.i..........",
".w.b.a.s#1#1#1#1#1#1#1#K.L.r#1#1#1#w.B.f.p#1#1#1#T.V.h.c.d.b....",
".w.b.d.F#1#1#2#W#1#1#1#P.T.y#1#1#1#s.C.s.I#f#1#1#S.U.k.p.x.m.b..",
".w.c.g.T#1#2#G#m#M#1#1#V.4.P#1#1#1#s.L#1#e#t#1#1#U.Y.u#1.9.M.i.#",
".w.c.l#1#1#P.9.Q#p#1#1#2#k#f#1#1#1#x.5#1#1#N#1#1#0.8.T#1#1##.r.a",
".w.d.q#1#1#H.P.A#1#1#1#1#1#1#1#1#2#N#A#1#2#1#1#1#2#B#1#1#1#k.t.a",
".w.d.q#1#1#u.I.u#1#Q#1#1#1#1#1#1#1#1#1#1#1#1#1#1#1#1#1#1#Z#b.p.#",
".w.d.l.Y#q#a.x.m.M#e#t#t#t#J#X#2#X#1#1#1#2#1#1#1#1#1#1#1#D.S.h..",
".w.c.e.v.R.G.k.d.m.z.I.K.N.0#c#g#g#j#r#v#n#k#t#F#E#C#A#t.4.s.b..",
".w.b.#.c.g.e.a...#.b.c.d.e.i.n.o.p.s.z.A.u.t.z.E.F.F.E.A.n.c....",
".w.b.........................#.a.a.b.d.d.c.b.d.e.e.e.e.d.a......",
".w.b............................................................"
};
