/* XPM */
static char *test[] = {
/* width height num_colors chars_per_pixel */
"    32    22        3            1",
/* colors */
". c #c9e3e4",
"# c #df3362",
"a c #ffc8ff",
/* pixels */
"................................",
"................................",
"................................",
"................................",
"................................",
"................................",
".#########......................",
".#...#...#...............#......",
".#...#...#...............#......",
".....#.......###...####.####....",
".....#......#aaa#.#...#..#......",
".....#.....#aaaa#.#......#......",
".....#.....######..###...#......",
".....#.....#..........#..#......",
".....#.....#......#...#..#......",
".....#......#...#.##..#..#.#....",
"....###......###..#.##....#.....",
"................................",
"................................",
"................................",
"................................",
"................................"
};
